# xmcd
#
# Track frame offsets: 
#        150
#        10880
#        18327
#        31345
#        43177
#        55962
#        69887
#        80097
#        93835
#        99122
#        111002
#        127265
#        141870
#        153415
#        170470
#        178085
#        198110
#        207037
#        223720
#        238220
#        255640
#        271755
#        286605
#        305982
#        316282
#        337770
#
# Disc length: 4678 seconds
#
# Revision: 9
# Processed by: cddbd v1.5.2PL0 Copyright (c) Steve Scherf et al.
# Submitted via: ExactAudioCopy v1.3
#
DISCID=6912441a
DTITLE=Johnny Cash - Johnny Cash At Madison Square Garden
DYEAR=1969
DGENRE=Country
TTITLE0=Big River
TTITLE1=I Still Miss Someone
TTITLE2=Five Feet High And Rising
TTITLE3=Pickin' Time
TTITLE4=Remember The Alamo
TTITLE5=Last Night I Had The Strangest Dream
TTITLE6=Wreck Of The Old 97
TTITLE7=The Long Black Veil
TTITLE8=The Wall
TTITLE9=Send A Picture Of Mother
TTITLE10=Folsom Prison Blues
TTITLE11=Blue Suede Shoes
TTITLE12=Flowers On The Wall
TTITLE13=Wildwood Flower
TTITLE14=Worried Man Blues
TTITLE15=A Boy Named Sue
TTITLE16=Cocaine Blues
TTITLE17=Jesus Was A Carpenter
TTITLE18=The Ballad Of Ira Hayes
TTITLE19=As Long As The Grass Shall Grow
TTITLE20=Sing A Travellin' Song
TTITLE21=He Turned The Water Into Wine
TTITLE22=Were You There (When They Crucified My Lord)
TTITLE23=Daddy Sang Bass
TTITLE24=Finale Medley
TTITLE25=Suppertime
EXTD=Columbia Records/ LEGACY
EXTT0=
EXTT1=
EXTT2=
EXTT3=
EXTT4=
EXTT5=
EXTT6=
EXTT7=
EXTT8=
EXTT9=
EXTT10=
EXTT11=Carl Perkins
EXTT12=The Statler Brothers
EXTT13=The Carter Family
EXTT14=The Carter Family
EXTT15=
EXTT16=
EXTT17=
EXTT18=
EXTT19=
EXTT20=
EXTT21=
EXTT22=
EXTT23=
EXTT24=
EXTT25=
PLAYORDER=
